<mxfile host="app.diagrams.net" agent="Mozilla/5.0 (Macintosh; Intel Mac OS X 10_15_7) AppleWebKit/537.36 (KHTML, like Gecko) Chrome/132.0.0.0 Safari/537.36" version="26.0.10">
  <diagram name="Page-1" id="AWlHKDuBrRfPrnJkOzHd">
    <mxGraphModel dx="1666" dy="1764" grid="0" gridSize="10" guides="1" tooltips="1" connect="1" arrows="1" fold="1" page="0" pageScale="1" pageWidth="827" pageHeight="1169" math="0" shadow="0">
      <root>
        <mxCell id="0" />
        <mxCell id="1" parent="0" />
        <mxCell id="Gm09_iqh8yHXQMh3_-yw-1" value="Invalid Command" style="rounded=1;whiteSpace=wrap;html=1;" vertex="1" parent="1">
          <mxGeometry x="-350" y="-87" width="120" height="60" as="geometry" />
        </mxCell>
        <mxCell id="Gm09_iqh8yHXQMh3_-yw-2" value="file command?" style="rhombus;whiteSpace=wrap;html=1;" vertex="1" parent="1">
          <mxGeometry x="-199" y="-103" width="110" height="80" as="geometry" />
        </mxCell>
        <mxCell id="Gm09_iqh8yHXQMh3_-yw-4" value="Start" style="ellipse;whiteSpace=wrap;html=1;" vertex="1" parent="1">
          <mxGeometry x="116" y="-164" width="120" height="80" as="geometry" />
        </mxCell>
        <mxCell id="Gm09_iqh8yHXQMh3_-yw-5" value="Check&lt;div&gt;Arguments&lt;/div&gt;" style="rhombus;whiteSpace=wrap;html=1;" vertex="1" parent="1">
          <mxGeometry x="120" y="-23" width="118" height="80" as="geometry" />
        </mxCell>
        <mxCell id="Gm09_iqh8yHXQMh3_-yw-7" value="Process&lt;div&gt;Command&lt;/div&gt;" style="rounded=0;whiteSpace=wrap;html=1;" vertex="1" parent="1">
          <mxGeometry x="252" y="94" width="120" height="60" as="geometry" />
        </mxCell>
        <mxCell id="Gm09_iqh8yHXQMh3_-yw-8" value="get file info?" style="rhombus;whiteSpace=wrap;html=1;" vertex="1" parent="1">
          <mxGeometry x="-197" y="87" width="113" height="80" as="geometry" />
        </mxCell>
        <mxCell id="Gm09_iqh8yHXQMh3_-yw-9" value="" style="endArrow=classic;html=1;rounded=0;fontSize=12;startSize=8;endSize=8;curved=1;exitX=0.5;exitY=1;exitDx=0;exitDy=0;entryX=0.5;entryY=0;entryDx=0;entryDy=0;" edge="1" parent="1" source="Gm09_iqh8yHXQMh3_-yw-4" target="Gm09_iqh8yHXQMh3_-yw-5">
          <mxGeometry width="50" height="50" relative="1" as="geometry">
            <mxPoint x="-7" y="147" as="sourcePoint" />
            <mxPoint x="43" y="97" as="targetPoint" />
          </mxGeometry>
        </mxCell>
        <mxCell id="Gm09_iqh8yHXQMh3_-yw-10" value="" style="endArrow=classic;html=1;rounded=0;fontSize=12;startSize=8;endSize=8;curved=1;exitX=0;exitY=0.5;exitDx=0;exitDy=0;entryX=0.5;entryY=0;entryDx=0;entryDy=0;" edge="1" parent="1" source="Gm09_iqh8yHXQMh3_-yw-5" target="Gm09_iqh8yHXQMh3_-yw-16">
          <mxGeometry width="50" height="50" relative="1" as="geometry">
            <mxPoint x="-7" y="147" as="sourcePoint" />
            <mxPoint x="32" y="94" as="targetPoint" />
            <Array as="points">
              <mxPoint x="27" y="35" />
            </Array>
          </mxGeometry>
        </mxCell>
        <mxCell id="Gm09_iqh8yHXQMh3_-yw-13" value="" style="endArrow=classic;html=1;rounded=0;fontSize=12;startSize=8;endSize=8;curved=1;exitX=0.5;exitY=1;exitDx=0;exitDy=0;entryX=0.5;entryY=0;entryDx=0;entryDy=0;" edge="1" parent="1" source="Gm09_iqh8yHXQMh3_-yw-70" target="Gm09_iqh8yHXQMh3_-yw-8">
          <mxGeometry width="50" height="50" relative="1" as="geometry">
            <mxPoint x="-7" y="147" as="sourcePoint" />
            <mxPoint x="43" y="97" as="targetPoint" />
          </mxGeometry>
        </mxCell>
        <mxCell id="Gm09_iqh8yHXQMh3_-yw-14" value="Print Error" style="rounded=0;whiteSpace=wrap;html=1;" vertex="1" parent="1">
          <mxGeometry x="-28" y="226" width="120" height="60" as="geometry" />
        </mxCell>
        <mxCell id="Gm09_iqh8yHXQMh3_-yw-15" value="help&amp;nbsp;&lt;div&gt;command?&lt;/div&gt;" style="rhombus;whiteSpace=wrap;html=1;" vertex="1" parent="1">
          <mxGeometry x="247" y="216" width="121" height="95" as="geometry" />
        </mxCell>
        <mxCell id="Gm09_iqh8yHXQMh3_-yw-19" style="edgeStyle=none;curved=1;rounded=0;orthogonalLoop=1;jettySize=auto;html=1;entryX=0.5;entryY=0;entryDx=0;entryDy=0;fontSize=12;startSize=8;endSize=8;" edge="1" parent="1" source="Gm09_iqh8yHXQMh3_-yw-16" target="Gm09_iqh8yHXQMh3_-yw-14">
          <mxGeometry relative="1" as="geometry" />
        </mxCell>
        <mxCell id="Gm09_iqh8yHXQMh3_-yw-16" value="No Arguments" style="ellipse;whiteSpace=wrap;html=1;" vertex="1" parent="1">
          <mxGeometry x="-28" y="112" width="120" height="80" as="geometry" />
        </mxCell>
        <mxCell id="Gm09_iqh8yHXQMh3_-yw-20" value="" style="endArrow=classic;html=1;rounded=0;fontSize=12;startSize=8;endSize=8;curved=1;entryX=0.5;entryY=0;entryDx=0;entryDy=0;exitX=0.5;exitY=1;exitDx=0;exitDy=0;" edge="1" parent="1" source="Gm09_iqh8yHXQMh3_-yw-7" target="Gm09_iqh8yHXQMh3_-yw-15">
          <mxGeometry width="50" height="50" relative="1" as="geometry">
            <mxPoint x="-7" y="147" as="sourcePoint" />
            <mxPoint x="43" y="97" as="targetPoint" />
          </mxGeometry>
        </mxCell>
        <mxCell id="Gm09_iqh8yHXQMh3_-yw-21" value="" style="endArrow=classic;html=1;rounded=0;fontSize=12;startSize=8;endSize=8;curved=1;exitX=0.5;exitY=0;exitDx=0;exitDy=0;entryX=0.25;entryY=1;entryDx=0;entryDy=0;" edge="1" parent="1" source="Gm09_iqh8yHXQMh3_-yw-2" target="Gm09_iqh8yHXQMh3_-yw-14">
          <mxGeometry width="50" height="50" relative="1" as="geometry">
            <mxPoint x="-7" y="147" as="sourcePoint" />
            <mxPoint x="43" y="97" as="targetPoint" />
            <Array as="points">
              <mxPoint x="-141" y="-134" />
              <mxPoint x="-96" y="-162" />
              <mxPoint x="-52" y="-8" />
              <mxPoint x="-45" y="372" />
            </Array>
          </mxGeometry>
        </mxCell>
        <mxCell id="Gm09_iqh8yHXQMh3_-yw-22" value="check file exists?" style="rhombus;whiteSpace=wrap;html=1;" vertex="1" parent="1">
          <mxGeometry x="-204.5" y="381" width="128" height="80" as="geometry" />
        </mxCell>
        <mxCell id="Gm09_iqh8yHXQMh3_-yw-23" value="get file details" style="rounded=0;whiteSpace=wrap;html=1;" vertex="1" parent="1">
          <mxGeometry x="-199" y="589" width="120" height="60" as="geometry" />
        </mxCell>
        <mxCell id="Gm09_iqh8yHXQMh3_-yw-24" value="show help" style="rounded=0;whiteSpace=wrap;html=1;" vertex="1" parent="1">
          <mxGeometry x="-29" y="475" width="97" height="60" as="geometry" />
        </mxCell>
        <mxCell id="Gm09_iqh8yHXQMh3_-yw-25" value="" style="endArrow=classic;html=1;rounded=0;fontSize=12;startSize=8;endSize=8;curved=1;entryX=0.5;entryY=0;entryDx=0;entryDy=0;exitX=0;exitY=0.5;exitDx=0;exitDy=0;" edge="1" parent="1" source="Gm09_iqh8yHXQMh3_-yw-77" target="Gm09_iqh8yHXQMh3_-yw-24">
          <mxGeometry width="50" height="50" relative="1" as="geometry">
            <mxPoint x="106" y="289" as="sourcePoint" />
            <mxPoint x="156" y="239" as="targetPoint" />
            <Array as="points">
              <mxPoint x="93" y="292" />
            </Array>
          </mxGeometry>
        </mxCell>
        <mxCell id="Gm09_iqh8yHXQMh3_-yw-26" value="version&amp;nbsp;&lt;div&gt;command?&lt;/div&gt;" style="rhombus;whiteSpace=wrap;html=1;" vertex="1" parent="1">
          <mxGeometry x="372" y="333" width="112" height="103" as="geometry" />
        </mxCell>
        <mxCell id="Gm09_iqh8yHXQMh3_-yw-27" value="" style="endArrow=classic;html=1;rounded=0;fontSize=12;startSize=8;endSize=8;curved=1;entryX=0.5;entryY=0;entryDx=0;entryDy=0;exitX=1;exitY=0.5;exitDx=0;exitDy=0;" edge="1" parent="1" source="Gm09_iqh8yHXQMh3_-yw-15" target="Gm09_iqh8yHXQMh3_-yw-26">
          <mxGeometry width="50" height="50" relative="1" as="geometry">
            <mxPoint x="106" y="289" as="sourcePoint" />
            <mxPoint x="156" y="239" as="targetPoint" />
            <Array as="points">
              <mxPoint x="408" y="271" />
            </Array>
          </mxGeometry>
        </mxCell>
        <mxCell id="Gm09_iqh8yHXQMh3_-yw-28" value="" style="endArrow=classic;html=1;rounded=0;fontSize=12;startSize=8;endSize=8;curved=1;entryX=0.5;entryY=0;entryDx=0;entryDy=0;exitX=0.5;exitY=1;exitDx=0;exitDy=0;" edge="1" parent="1" source="Gm09_iqh8yHXQMh3_-yw-100" target="Gm09_iqh8yHXQMh3_-yw-23">
          <mxGeometry width="50" height="50" relative="1" as="geometry">
            <mxPoint x="106" y="289" as="sourcePoint" />
            <mxPoint x="156" y="239" as="targetPoint" />
          </mxGeometry>
        </mxCell>
        <mxCell id="Gm09_iqh8yHXQMh3_-yw-29" value="" style="endArrow=classic;html=1;rounded=0;fontSize=12;startSize=8;endSize=8;curved=1;exitX=0.5;exitY=1;exitDx=0;exitDy=0;entryX=0.5;entryY=0;entryDx=0;entryDy=0;" edge="1" parent="1" source="Gm09_iqh8yHXQMh3_-yw-72" target="Gm09_iqh8yHXQMh3_-yw-22">
          <mxGeometry width="50" height="50" relative="1" as="geometry">
            <mxPoint x="106" y="289" as="sourcePoint" />
            <mxPoint x="156" y="239" as="targetPoint" />
          </mxGeometry>
        </mxCell>
        <mxCell id="Gm09_iqh8yHXQMh3_-yw-30" value="" style="endArrow=classic;html=1;rounded=0;fontSize=12;startSize=8;endSize=8;curved=1;exitX=1;exitY=0;exitDx=0;exitDy=0;entryX=0.5;entryY=1;entryDx=0;entryDy=0;" edge="1" parent="1" source="Gm09_iqh8yHXQMh3_-yw-97" target="Gm09_iqh8yHXQMh3_-yw-14">
          <mxGeometry width="50" height="50" relative="1" as="geometry">
            <mxPoint x="106" y="289" as="sourcePoint" />
            <mxPoint x="156" y="239" as="targetPoint" />
            <Array as="points" />
          </mxGeometry>
        </mxCell>
        <mxCell id="Gm09_iqh8yHXQMh3_-yw-31" style="edgeStyle=none;curved=1;rounded=0;orthogonalLoop=1;jettySize=auto;html=1;exitX=1;exitY=1;exitDx=0;exitDy=0;fontSize=12;startSize=8;endSize=8;" edge="1" parent="1" source="Gm09_iqh8yHXQMh3_-yw-22" target="Gm09_iqh8yHXQMh3_-yw-22">
          <mxGeometry relative="1" as="geometry" />
        </mxCell>
        <mxCell id="Gm09_iqh8yHXQMh3_-yw-32" value="cpu&lt;div&gt;command?&lt;/div&gt;" style="rhombus;whiteSpace=wrap;html=1;" vertex="1" parent="1">
          <mxGeometry x="334" y="470" width="93" height="88" as="geometry" />
        </mxCell>
        <mxCell id="Gm09_iqh8yHXQMh3_-yw-33" value="memory&lt;br&gt;&lt;div&gt;command&lt;/div&gt;" style="rhombus;whiteSpace=wrap;html=1;" vertex="1" parent="1">
          <mxGeometry x="272" y="585" width="93" height="88" as="geometry" />
        </mxCell>
        <mxCell id="Gm09_iqh8yHXQMh3_-yw-58" style="edgeStyle=none;curved=1;rounded=0;orthogonalLoop=1;jettySize=auto;html=1;entryX=0.5;entryY=0;entryDx=0;entryDy=0;fontSize=12;startSize=8;endSize=8;exitX=1;exitY=0.5;exitDx=0;exitDy=0;" edge="1" parent="1" source="Gm09_iqh8yHXQMh3_-yw-83" target="Gm09_iqh8yHXQMh3_-yw-39">
          <mxGeometry relative="1" as="geometry" />
        </mxCell>
        <mxCell id="Gm09_iqh8yHXQMh3_-yw-34" value="user&lt;div&gt;command?&lt;/div&gt;" style="rhombus;whiteSpace=wrap;html=1;" vertex="1" parent="1">
          <mxGeometry x="191" y="699" width="93" height="88" as="geometry" />
        </mxCell>
        <mxCell id="Gm09_iqh8yHXQMh3_-yw-35" value="create&lt;br&gt;&lt;div&gt;user?&lt;/div&gt;" style="rhombus;whiteSpace=wrap;html=1;" vertex="1" parent="1">
          <mxGeometry x="122" y="815" width="97" height="90" as="geometry" />
        </mxCell>
        <mxCell id="Gm09_iqh8yHXQMh3_-yw-36" value="check&lt;div&gt;username&lt;/div&gt;" style="rhombus;whiteSpace=wrap;html=1;" vertex="1" parent="1">
          <mxGeometry x="68" y="931" width="93" height="88" as="geometry" />
        </mxCell>
        <mxCell id="Gm09_iqh8yHXQMh3_-yw-37" value="show version" style="rounded=0;whiteSpace=wrap;html=1;" vertex="1" parent="1">
          <mxGeometry x="513" y="452" width="97" height="60" as="geometry" />
        </mxCell>
        <mxCell id="Gm09_iqh8yHXQMh3_-yw-38" value="pipe lscpu" style="rounded=0;whiteSpace=wrap;html=1;" vertex="1" parent="1">
          <mxGeometry x="456" y="587" width="97" height="60" as="geometry" />
        </mxCell>
        <mxCell id="Gm09_iqh8yHXQMh3_-yw-39" value="pipe free" style="rounded=0;whiteSpace=wrap;html=1;" vertex="1" parent="1">
          <mxGeometry x="379.5" y="713" width="97" height="60" as="geometry" />
        </mxCell>
        <mxCell id="Gm09_iqh8yHXQMh3_-yw-40" value="list&lt;br&gt;&lt;div&gt;users?&lt;/div&gt;" style="rhombus;whiteSpace=wrap;html=1;" vertex="1" parent="1">
          <mxGeometry x="284" y="798" width="93" height="88" as="geometry" />
        </mxCell>
        <mxCell id="Gm09_iqh8yHXQMh3_-yw-41" value="list sudo&lt;div&gt;users&lt;/div&gt;" style="rounded=0;whiteSpace=wrap;html=1;" vertex="1" parent="1">
          <mxGeometry x="318" y="973" width="97" height="60" as="geometry" />
        </mxCell>
        <mxCell id="Gm09_iqh8yHXQMh3_-yw-42" value="list regular&amp;nbsp;&lt;div&gt;users&lt;/div&gt;" style="rounded=0;whiteSpace=wrap;html=1;" vertex="1" parent="1">
          <mxGeometry x="191" y="957" width="97" height="60" as="geometry" />
        </mxCell>
        <mxCell id="Gm09_iqh8yHXQMh3_-yw-43" value="create user" style="rounded=0;whiteSpace=wrap;html=1;" vertex="1" parent="1">
          <mxGeometry x="66" y="1100" width="97" height="60" as="geometry" />
        </mxCell>
        <mxCell id="Gm09_iqh8yHXQMh3_-yw-45" value="End" style="ellipse;whiteSpace=wrap;html=1;" vertex="1" parent="1">
          <mxGeometry x="35" y="1259" width="120" height="80" as="geometry" />
        </mxCell>
        <mxCell id="Gm09_iqh8yHXQMh3_-yw-46" value="" style="endArrow=classic;html=1;rounded=0;fontSize=12;startSize=8;endSize=8;curved=1;exitX=1;exitY=0.5;exitDx=0;exitDy=0;entryX=0.5;entryY=0;entryDx=0;entryDy=0;" edge="1" parent="1" source="Gm09_iqh8yHXQMh3_-yw-79" target="Gm09_iqh8yHXQMh3_-yw-37">
          <mxGeometry width="50" height="50" relative="1" as="geometry">
            <mxPoint x="325" y="809" as="sourcePoint" />
            <mxPoint x="375" y="759" as="targetPoint" />
          </mxGeometry>
        </mxCell>
        <mxCell id="Gm09_iqh8yHXQMh3_-yw-47" value="" style="endArrow=classic;html=1;rounded=0;fontSize=12;startSize=8;endSize=8;curved=1;exitX=0.5;exitY=1;exitDx=0;exitDy=0;entryX=0.5;entryY=0;entryDx=0;entryDy=0;" edge="1" parent="1" source="Gm09_iqh8yHXQMh3_-yw-85" target="Gm09_iqh8yHXQMh3_-yw-32">
          <mxGeometry width="50" height="50" relative="1" as="geometry">
            <mxPoint x="342.5" y="422" as="sourcePoint" />
            <mxPoint x="404.5" y="471" as="targetPoint" />
          </mxGeometry>
        </mxCell>
        <mxCell id="Gm09_iqh8yHXQMh3_-yw-48" value="" style="endArrow=classic;html=1;rounded=0;fontSize=12;startSize=8;endSize=8;curved=1;exitX=0.5;exitY=1;exitDx=0;exitDy=0;entryX=0.5;entryY=0;entryDx=0;entryDy=0;" edge="1" parent="1" source="Gm09_iqh8yHXQMh3_-yw-87" target="Gm09_iqh8yHXQMh3_-yw-33">
          <mxGeometry width="50" height="50" relative="1" as="geometry">
            <mxPoint x="325" y="809" as="sourcePoint" />
            <mxPoint x="375" y="759" as="targetPoint" />
          </mxGeometry>
        </mxCell>
        <mxCell id="Gm09_iqh8yHXQMh3_-yw-49" value="" style="endArrow=classic;html=1;rounded=0;fontSize=12;startSize=8;endSize=8;curved=1;exitX=0.5;exitY=1;exitDx=0;exitDy=0;entryX=0.5;entryY=0;entryDx=0;entryDy=0;" edge="1" parent="1" source="Gm09_iqh8yHXQMh3_-yw-89" target="Gm09_iqh8yHXQMh3_-yw-34">
          <mxGeometry width="50" height="50" relative="1" as="geometry">
            <mxPoint x="325" y="809" as="sourcePoint" />
            <mxPoint x="375" y="759" as="targetPoint" />
          </mxGeometry>
        </mxCell>
        <mxCell id="Gm09_iqh8yHXQMh3_-yw-50" value="" style="endArrow=classic;html=1;rounded=0;fontSize=12;startSize=8;endSize=8;curved=1;exitX=0.5;exitY=1;exitDx=0;exitDy=0;entryX=0.5;entryY=0;entryDx=0;entryDy=0;" edge="1" parent="1" source="Gm09_iqh8yHXQMh3_-yw-91" target="Gm09_iqh8yHXQMh3_-yw-35">
          <mxGeometry width="50" height="50" relative="1" as="geometry">
            <mxPoint x="325" y="809" as="sourcePoint" />
            <mxPoint x="375" y="759" as="targetPoint" />
          </mxGeometry>
        </mxCell>
        <mxCell id="Gm09_iqh8yHXQMh3_-yw-51" value="" style="endArrow=classic;html=1;rounded=0;fontSize=12;startSize=8;endSize=8;curved=1;entryX=0.5;entryY=0;entryDx=0;entryDy=0;exitX=0;exitY=0.5;exitDx=0;exitDy=0;" edge="1" parent="1" source="Gm09_iqh8yHXQMh3_-yw-35" target="Gm09_iqh8yHXQMh3_-yw-36">
          <mxGeometry width="50" height="50" relative="1" as="geometry">
            <mxPoint x="325" y="809" as="sourcePoint" />
            <mxPoint x="375" y="759" as="targetPoint" />
          </mxGeometry>
        </mxCell>
        <mxCell id="Gm09_iqh8yHXQMh3_-yw-52" value="" style="endArrow=classic;html=1;rounded=0;fontSize=12;startSize=8;endSize=8;curved=1;exitX=0.5;exitY=0;exitDx=0;exitDy=0;entryX=0.75;entryY=1;entryDx=0;entryDy=0;" edge="1" parent="1" source="Gm09_iqh8yHXQMh3_-yw-103" target="Gm09_iqh8yHXQMh3_-yw-14">
          <mxGeometry width="50" height="50" relative="1" as="geometry">
            <mxPoint x="126" y="809" as="sourcePoint" />
            <mxPoint x="-32" y="518" as="targetPoint" />
            <Array as="points" />
          </mxGeometry>
        </mxCell>
        <mxCell id="Gm09_iqh8yHXQMh3_-yw-53" value="" style="endArrow=classic;html=1;rounded=0;fontSize=12;startSize=8;endSize=8;curved=1;entryX=0.5;entryY=0;entryDx=0;entryDy=0;exitX=0.5;exitY=1;exitDx=0;exitDy=0;" edge="1" parent="1" source="Gm09_iqh8yHXQMh3_-yw-105" target="Gm09_iqh8yHXQMh3_-yw-43">
          <mxGeometry width="50" height="50" relative="1" as="geometry">
            <mxPoint x="140" y="783" as="sourcePoint" />
            <mxPoint x="190" y="733" as="targetPoint" />
          </mxGeometry>
        </mxCell>
        <mxCell id="Gm09_iqh8yHXQMh3_-yw-54" value="" style="endArrow=classic;html=1;rounded=0;fontSize=12;startSize=8;endSize=8;curved=1;entryX=0.5;entryY=0;entryDx=0;entryDy=0;exitX=0.5;exitY=1;exitDx=0;exitDy=0;" edge="1" parent="1" source="Gm09_iqh8yHXQMh3_-yw-110" target="Gm09_iqh8yHXQMh3_-yw-42">
          <mxGeometry width="50" height="50" relative="1" as="geometry">
            <mxPoint x="140" y="783" as="sourcePoint" />
            <mxPoint x="190" y="733" as="targetPoint" />
          </mxGeometry>
        </mxCell>
        <mxCell id="Gm09_iqh8yHXQMh3_-yw-55" value="" style="endArrow=classic;html=1;rounded=0;fontSize=12;startSize=8;endSize=8;curved=1;entryX=0.5;entryY=0;entryDx=0;entryDy=0;exitX=0.5;exitY=1;exitDx=0;exitDy=0;" edge="1" parent="1" source="Gm09_iqh8yHXQMh3_-yw-108" target="Gm09_iqh8yHXQMh3_-yw-41">
          <mxGeometry width="50" height="50" relative="1" as="geometry">
            <mxPoint x="140" y="783" as="sourcePoint" />
            <mxPoint x="190" y="733" as="targetPoint" />
          </mxGeometry>
        </mxCell>
        <mxCell id="Gm09_iqh8yHXQMh3_-yw-56" value="" style="endArrow=classic;html=1;rounded=0;fontSize=12;startSize=8;endSize=8;curved=1;entryX=0.5;entryY=0;entryDx=0;entryDy=0;exitX=0.5;exitY=1;exitDx=0;exitDy=0;" edge="1" parent="1" source="Gm09_iqh8yHXQMh3_-yw-94" target="Gm09_iqh8yHXQMh3_-yw-40">
          <mxGeometry width="50" height="50" relative="1" as="geometry">
            <mxPoint x="140" y="783" as="sourcePoint" />
            <mxPoint x="190" y="733" as="targetPoint" />
          </mxGeometry>
        </mxCell>
        <mxCell id="Gm09_iqh8yHXQMh3_-yw-59" value="" style="endArrow=classic;html=1;rounded=0;fontSize=12;startSize=8;endSize=8;curved=1;entryX=0.5;entryY=0;entryDx=0;entryDy=0;exitX=1;exitY=0.5;exitDx=0;exitDy=0;" edge="1" parent="1" source="Gm09_iqh8yHXQMh3_-yw-81" target="Gm09_iqh8yHXQMh3_-yw-38">
          <mxGeometry width="50" height="50" relative="1" as="geometry">
            <mxPoint x="140" y="783" as="sourcePoint" />
            <mxPoint x="190" y="733" as="targetPoint" />
          </mxGeometry>
        </mxCell>
        <mxCell id="Gm09_iqh8yHXQMh3_-yw-60" value="" style="endArrow=classic;html=1;rounded=0;fontSize=12;startSize=8;endSize=8;curved=1;exitX=0.5;exitY=1;exitDx=0;exitDy=0;entryX=0;entryY=0;entryDx=0;entryDy=0;" edge="1" parent="1" source="Gm09_iqh8yHXQMh3_-yw-24" target="Gm09_iqh8yHXQMh3_-yw-45">
          <mxGeometry width="50" height="50" relative="1" as="geometry">
            <mxPoint x="140" y="783" as="sourcePoint" />
            <mxPoint x="190" y="733" as="targetPoint" />
          </mxGeometry>
        </mxCell>
        <mxCell id="Gm09_iqh8yHXQMh3_-yw-61" value="" style="endArrow=classic;html=1;rounded=0;fontSize=12;startSize=8;endSize=8;curved=1;entryX=0.435;entryY=0.05;entryDx=0;entryDy=0;entryPerimeter=0;exitX=0.5;exitY=1;exitDx=0;exitDy=0;" edge="1" parent="1" source="Gm09_iqh8yHXQMh3_-yw-43" target="Gm09_iqh8yHXQMh3_-yw-45">
          <mxGeometry width="50" height="50" relative="1" as="geometry">
            <mxPoint x="140" y="877" as="sourcePoint" />
            <mxPoint x="190" y="827" as="targetPoint" />
          </mxGeometry>
        </mxCell>
        <mxCell id="Gm09_iqh8yHXQMh3_-yw-62" value="" style="endArrow=classic;html=1;rounded=0;fontSize=12;startSize=8;endSize=8;curved=1;entryX=1;entryY=0;entryDx=0;entryDy=0;exitX=0.5;exitY=1;exitDx=0;exitDy=0;" edge="1" parent="1" source="Gm09_iqh8yHXQMh3_-yw-42" target="Gm09_iqh8yHXQMh3_-yw-45">
          <mxGeometry width="50" height="50" relative="1" as="geometry">
            <mxPoint x="140" y="877" as="sourcePoint" />
            <mxPoint x="190" y="827" as="targetPoint" />
          </mxGeometry>
        </mxCell>
        <mxCell id="Gm09_iqh8yHXQMh3_-yw-63" value="" style="endArrow=classic;html=1;rounded=0;fontSize=12;startSize=8;endSize=8;curved=1;entryX=1;entryY=0;entryDx=0;entryDy=0;exitX=0.5;exitY=1;exitDx=0;exitDy=0;" edge="1" parent="1" source="Gm09_iqh8yHXQMh3_-yw-41" target="Gm09_iqh8yHXQMh3_-yw-45">
          <mxGeometry width="50" height="50" relative="1" as="geometry">
            <mxPoint x="140" y="877" as="sourcePoint" />
            <mxPoint x="190" y="827" as="targetPoint" />
          </mxGeometry>
        </mxCell>
        <mxCell id="Gm09_iqh8yHXQMh3_-yw-64" value="" style="endArrow=classic;html=1;rounded=0;fontSize=12;startSize=8;endSize=8;curved=1;entryX=1;entryY=0;entryDx=0;entryDy=0;exitX=0.5;exitY=1;exitDx=0;exitDy=0;" edge="1" parent="1" source="Gm09_iqh8yHXQMh3_-yw-39" target="Gm09_iqh8yHXQMh3_-yw-45">
          <mxGeometry width="50" height="50" relative="1" as="geometry">
            <mxPoint x="140" y="877" as="sourcePoint" />
            <mxPoint x="190" y="827" as="targetPoint" />
            <Array as="points">
              <mxPoint x="528" y="1226" />
            </Array>
          </mxGeometry>
        </mxCell>
        <mxCell id="Gm09_iqh8yHXQMh3_-yw-65" value="" style="endArrow=classic;html=1;rounded=0;fontSize=12;startSize=8;endSize=8;curved=1;entryX=1;entryY=0;entryDx=0;entryDy=0;exitX=0.5;exitY=1;exitDx=0;exitDy=0;" edge="1" parent="1" source="Gm09_iqh8yHXQMh3_-yw-38" target="Gm09_iqh8yHXQMh3_-yw-45">
          <mxGeometry width="50" height="50" relative="1" as="geometry">
            <mxPoint x="206" y="877" as="sourcePoint" />
            <mxPoint x="256" y="827" as="targetPoint" />
            <Array as="points">
              <mxPoint x="540" y="1248" />
            </Array>
          </mxGeometry>
        </mxCell>
        <mxCell id="Gm09_iqh8yHXQMh3_-yw-66" value="" style="endArrow=classic;html=1;rounded=0;fontSize=12;startSize=8;endSize=8;curved=1;entryX=1;entryY=0.5;entryDx=0;entryDy=0;exitX=0.5;exitY=1;exitDx=0;exitDy=0;" edge="1" parent="1" source="Gm09_iqh8yHXQMh3_-yw-37" target="Gm09_iqh8yHXQMh3_-yw-45">
          <mxGeometry width="50" height="50" relative="1" as="geometry">
            <mxPoint x="206" y="877" as="sourcePoint" />
            <mxPoint x="256" y="827" as="targetPoint" />
            <Array as="points">
              <mxPoint x="673" y="1192" />
            </Array>
          </mxGeometry>
        </mxCell>
        <mxCell id="Gm09_iqh8yHXQMh3_-yw-67" value="" style="endArrow=classic;html=1;rounded=0;fontSize=12;startSize=8;endSize=8;curved=1;entryX=0;entryY=0.5;entryDx=0;entryDy=0;exitX=0.5;exitY=1;exitDx=0;exitDy=0;" edge="1" parent="1" source="Gm09_iqh8yHXQMh3_-yw-23" target="Gm09_iqh8yHXQMh3_-yw-45">
          <mxGeometry width="50" height="50" relative="1" as="geometry">
            <mxPoint x="118" y="661" as="sourcePoint" />
            <mxPoint x="168" y="611" as="targetPoint" />
          </mxGeometry>
        </mxCell>
        <mxCell id="Gm09_iqh8yHXQMh3_-yw-68" value="" style="endArrow=classic;html=1;rounded=0;fontSize=12;startSize=8;endSize=8;curved=1;entryX=0.025;entryY=0.688;entryDx=0;entryDy=0;entryPerimeter=0;exitX=0.5;exitY=1;exitDx=0;exitDy=0;" edge="1" parent="1" target="Gm09_iqh8yHXQMh3_-yw-45">
          <mxGeometry width="50" height="50" relative="1" as="geometry">
            <mxPoint x="-298" y="-23" as="sourcePoint" />
            <mxPoint x="34.51999999999998" y="1310.04" as="targetPoint" />
            <Array as="points">
              <mxPoint x="-328" y="752" />
            </Array>
          </mxGeometry>
        </mxCell>
        <mxCell id="Gm09_iqh8yHXQMh3_-yw-69" value="" style="endArrow=classic;html=1;rounded=0;fontSize=12;startSize=8;endSize=8;curved=1;entryX=0.063;entryY=0.338;entryDx=0;entryDy=0;entryPerimeter=0;exitX=0.5;exitY=1;exitDx=0;exitDy=0;" edge="1" parent="1" source="Gm09_iqh8yHXQMh3_-yw-14" target="Gm09_iqh8yHXQMh3_-yw-45">
          <mxGeometry width="50" height="50" relative="1" as="geometry">
            <mxPoint x="48" y="304" as="sourcePoint" />
            <mxPoint x="168" y="611" as="targetPoint" />
            <Array as="points">
              <mxPoint x="-154" y="482" />
            </Array>
          </mxGeometry>
        </mxCell>
        <mxCell id="Gm09_iqh8yHXQMh3_-yw-71" value="" style="endArrow=classic;html=1;rounded=0;fontSize=12;startSize=8;endSize=8;curved=1;exitX=0.5;exitY=1;exitDx=0;exitDy=0;entryX=0.5;entryY=0;entryDx=0;entryDy=0;" edge="1" parent="1" source="Gm09_iqh8yHXQMh3_-yw-2" target="Gm09_iqh8yHXQMh3_-yw-70">
          <mxGeometry width="50" height="50" relative="1" as="geometry">
            <mxPoint x="-144" y="-23" as="sourcePoint" />
            <mxPoint x="-140" y="87" as="targetPoint" />
          </mxGeometry>
        </mxCell>
        <mxCell id="Gm09_iqh8yHXQMh3_-yw-70" value="YES" style="text;html=1;align=center;verticalAlign=middle;whiteSpace=wrap;rounded=0;" vertex="1" parent="1">
          <mxGeometry x="-171" y="17" width="60" height="30" as="geometry" />
        </mxCell>
        <mxCell id="Gm09_iqh8yHXQMh3_-yw-73" value="" style="endArrow=classic;html=1;rounded=0;fontSize=12;startSize=8;endSize=8;curved=1;exitX=0.5;exitY=1;exitDx=0;exitDy=0;entryX=0.5;entryY=0;entryDx=0;entryDy=0;" edge="1" parent="1" source="Gm09_iqh8yHXQMh3_-yw-8" target="Gm09_iqh8yHXQMh3_-yw-72">
          <mxGeometry width="50" height="50" relative="1" as="geometry">
            <mxPoint x="-140" y="167" as="sourcePoint" />
            <mxPoint x="-140" y="381" as="targetPoint" />
          </mxGeometry>
        </mxCell>
        <mxCell id="Gm09_iqh8yHXQMh3_-yw-72" value="YES" style="text;html=1;align=center;verticalAlign=middle;whiteSpace=wrap;rounded=0;" vertex="1" parent="1">
          <mxGeometry x="-171" y="235" width="60" height="30" as="geometry" />
        </mxCell>
        <mxCell id="Gm09_iqh8yHXQMh3_-yw-75" value="" style="endArrow=classic;html=1;rounded=0;fontSize=12;startSize=8;endSize=8;curved=1;exitX=1;exitY=0.5;exitDx=0;exitDy=0;entryX=0;entryY=0.5;entryDx=0;entryDy=0;" edge="1" parent="1" source="Gm09_iqh8yHXQMh3_-yw-5" target="Gm09_iqh8yHXQMh3_-yw-74">
          <mxGeometry width="50" height="50" relative="1" as="geometry">
            <mxPoint x="238" y="17" as="sourcePoint" />
            <mxPoint x="312" y="94" as="targetPoint" />
            <Array as="points" />
          </mxGeometry>
        </mxCell>
        <mxCell id="Gm09_iqh8yHXQMh3_-yw-74" value="YES" style="text;html=1;align=center;verticalAlign=middle;whiteSpace=wrap;rounded=0;" vertex="1" parent="1">
          <mxGeometry x="282" y="21" width="60" height="30" as="geometry" />
        </mxCell>
        <mxCell id="Gm09_iqh8yHXQMh3_-yw-76" value="" style="endArrow=classic;html=1;rounded=0;fontSize=12;startSize=8;endSize=8;curved=1;entryX=0.5;entryY=0;entryDx=0;entryDy=0;exitX=0.5;exitY=1;exitDx=0;exitDy=0;" edge="1" parent="1" source="Gm09_iqh8yHXQMh3_-yw-74" target="Gm09_iqh8yHXQMh3_-yw-7">
          <mxGeometry width="50" height="50" relative="1" as="geometry">
            <mxPoint x="118" y="455" as="sourcePoint" />
            <mxPoint x="168" y="405" as="targetPoint" />
          </mxGeometry>
        </mxCell>
        <mxCell id="Gm09_iqh8yHXQMh3_-yw-78" value="" style="endArrow=classic;html=1;rounded=0;fontSize=12;startSize=8;endSize=8;curved=1;entryX=0.5;entryY=0;entryDx=0;entryDy=0;exitX=0;exitY=0.5;exitDx=0;exitDy=0;" edge="1" parent="1" source="Gm09_iqh8yHXQMh3_-yw-15" target="Gm09_iqh8yHXQMh3_-yw-77">
          <mxGeometry width="50" height="50" relative="1" as="geometry">
            <mxPoint x="247" y="264" as="sourcePoint" />
            <mxPoint x="41" y="432" as="targetPoint" />
            <Array as="points" />
          </mxGeometry>
        </mxCell>
        <mxCell id="Gm09_iqh8yHXQMh3_-yw-77" value="YES" style="text;html=1;align=center;verticalAlign=middle;whiteSpace=wrap;rounded=0;" vertex="1" parent="1">
          <mxGeometry x="97" y="299" width="60" height="30" as="geometry" />
        </mxCell>
        <mxCell id="Gm09_iqh8yHXQMh3_-yw-80" value="" style="endArrow=classic;html=1;rounded=0;fontSize=12;startSize=8;endSize=8;curved=1;exitX=1;exitY=0.5;exitDx=0;exitDy=0;entryX=0.5;entryY=0;entryDx=0;entryDy=0;" edge="1" parent="1" source="Gm09_iqh8yHXQMh3_-yw-26" target="Gm09_iqh8yHXQMh3_-yw-79">
          <mxGeometry width="50" height="50" relative="1" as="geometry">
            <mxPoint x="484" y="385" as="sourcePoint" />
            <mxPoint x="546" y="434" as="targetPoint" />
          </mxGeometry>
        </mxCell>
        <mxCell id="Gm09_iqh8yHXQMh3_-yw-79" value="YES" style="text;html=1;align=center;verticalAlign=middle;whiteSpace=wrap;rounded=0;" vertex="1" parent="1">
          <mxGeometry x="495" y="397" width="60" height="30" as="geometry" />
        </mxCell>
        <mxCell id="Gm09_iqh8yHXQMh3_-yw-82" value="" style="endArrow=classic;html=1;rounded=0;fontSize=12;startSize=8;endSize=8;curved=1;entryX=0.5;entryY=0;entryDx=0;entryDy=0;exitX=1;exitY=0.5;exitDx=0;exitDy=0;" edge="1" parent="1" source="Gm09_iqh8yHXQMh3_-yw-32" target="Gm09_iqh8yHXQMh3_-yw-81">
          <mxGeometry width="50" height="50" relative="1" as="geometry">
            <mxPoint x="420" y="524" as="sourcePoint" />
            <mxPoint x="505" y="587" as="targetPoint" />
          </mxGeometry>
        </mxCell>
        <mxCell id="Gm09_iqh8yHXQMh3_-yw-81" value="YES" style="text;html=1;align=center;verticalAlign=middle;whiteSpace=wrap;rounded=0;" vertex="1" parent="1">
          <mxGeometry x="429" y="535" width="60" height="30" as="geometry" />
        </mxCell>
        <mxCell id="Gm09_iqh8yHXQMh3_-yw-84" value="" style="edgeStyle=none;curved=1;rounded=0;orthogonalLoop=1;jettySize=auto;html=1;entryX=0.5;entryY=0;entryDx=0;entryDy=0;fontSize=12;startSize=8;endSize=8;exitX=1;exitY=0.5;exitDx=0;exitDy=0;" edge="1" parent="1" source="Gm09_iqh8yHXQMh3_-yw-33" target="Gm09_iqh8yHXQMh3_-yw-83">
          <mxGeometry relative="1" as="geometry">
            <mxPoint x="359" y="619" as="sourcePoint" />
            <mxPoint x="428" y="713" as="targetPoint" />
          </mxGeometry>
        </mxCell>
        <mxCell id="Gm09_iqh8yHXQMh3_-yw-83" value="YES" style="text;html=1;align=center;verticalAlign=middle;whiteSpace=wrap;rounded=0;" vertex="1" parent="1">
          <mxGeometry x="358.5" y="647" width="60" height="30" as="geometry" />
        </mxCell>
        <mxCell id="Gm09_iqh8yHXQMh3_-yw-86" value="" style="endArrow=classic;html=1;rounded=0;fontSize=12;startSize=8;endSize=8;curved=1;exitX=0;exitY=0.5;exitDx=0;exitDy=0;entryX=0.5;entryY=0;entryDx=0;entryDy=0;" edge="1" parent="1" source="Gm09_iqh8yHXQMh3_-yw-26" target="Gm09_iqh8yHXQMh3_-yw-85">
          <mxGeometry width="50" height="50" relative="1" as="geometry">
            <mxPoint x="372" y="385" as="sourcePoint" />
            <mxPoint x="374" y="480" as="targetPoint" />
          </mxGeometry>
        </mxCell>
        <mxCell id="Gm09_iqh8yHXQMh3_-yw-85" value="NO" style="text;html=1;align=center;verticalAlign=middle;whiteSpace=wrap;rounded=0;" vertex="1" parent="1">
          <mxGeometry x="342" y="413" width="60" height="30" as="geometry" />
        </mxCell>
        <mxCell id="Gm09_iqh8yHXQMh3_-yw-88" value="" style="endArrow=classic;html=1;rounded=0;fontSize=12;startSize=8;endSize=8;curved=1;exitX=0;exitY=0.5;exitDx=0;exitDy=0;entryX=0.5;entryY=0;entryDx=0;entryDy=0;" edge="1" parent="1" source="Gm09_iqh8yHXQMh3_-yw-32" target="Gm09_iqh8yHXQMh3_-yw-87">
          <mxGeometry width="50" height="50" relative="1" as="geometry">
            <mxPoint x="327" y="524" as="sourcePoint" />
            <mxPoint x="319" y="585" as="targetPoint" />
          </mxGeometry>
        </mxCell>
        <mxCell id="Gm09_iqh8yHXQMh3_-yw-87" value="NO" style="text;html=1;align=center;verticalAlign=middle;whiteSpace=wrap;rounded=0;" vertex="1" parent="1">
          <mxGeometry x="294" y="538" width="60" height="30" as="geometry" />
        </mxCell>
        <mxCell id="Gm09_iqh8yHXQMh3_-yw-90" value="" style="endArrow=classic;html=1;rounded=0;fontSize=12;startSize=8;endSize=8;curved=1;exitX=0;exitY=0.5;exitDx=0;exitDy=0;entryX=0.5;entryY=0;entryDx=0;entryDy=0;" edge="1" parent="1" source="Gm09_iqh8yHXQMh3_-yw-33" target="Gm09_iqh8yHXQMh3_-yw-89">
          <mxGeometry width="50" height="50" relative="1" as="geometry">
            <mxPoint x="272" y="629" as="sourcePoint" />
            <mxPoint x="248" y="691" as="targetPoint" />
          </mxGeometry>
        </mxCell>
        <mxCell id="Gm09_iqh8yHXQMh3_-yw-89" value="NO" style="text;html=1;align=center;verticalAlign=middle;whiteSpace=wrap;rounded=0;" vertex="1" parent="1">
          <mxGeometry x="230" y="647" width="60" height="30" as="geometry" />
        </mxCell>
        <mxCell id="Gm09_iqh8yHXQMh3_-yw-92" value="" style="endArrow=classic;html=1;rounded=0;fontSize=12;startSize=8;endSize=8;curved=1;exitX=0;exitY=0.5;exitDx=0;exitDy=0;entryX=0.5;entryY=0;entryDx=0;entryDy=0;" edge="1" parent="1" source="Gm09_iqh8yHXQMh3_-yw-34" target="Gm09_iqh8yHXQMh3_-yw-91">
          <mxGeometry width="50" height="50" relative="1" as="geometry">
            <mxPoint x="191" y="743" as="sourcePoint" />
            <mxPoint x="176" y="797" as="targetPoint" />
          </mxGeometry>
        </mxCell>
        <mxCell id="Gm09_iqh8yHXQMh3_-yw-91" value="NO" style="text;html=1;align=center;verticalAlign=middle;whiteSpace=wrap;rounded=0;" vertex="1" parent="1">
          <mxGeometry x="146" y="765" width="60" height="30" as="geometry" />
        </mxCell>
        <mxCell id="Gm09_iqh8yHXQMh3_-yw-96" value="" style="endArrow=classic;html=1;rounded=0;fontSize=12;startSize=8;endSize=8;curved=1;entryX=0.5;entryY=0;entryDx=0;entryDy=0;exitX=1;exitY=0.5;exitDx=0;exitDy=0;" edge="1" parent="1" source="Gm09_iqh8yHXQMh3_-yw-34" target="Gm09_iqh8yHXQMh3_-yw-94">
          <mxGeometry width="50" height="50" relative="1" as="geometry">
            <mxPoint x="284" y="743" as="sourcePoint" />
            <mxPoint x="322" y="773" as="targetPoint" />
          </mxGeometry>
        </mxCell>
        <mxCell id="Gm09_iqh8yHXQMh3_-yw-94" value="YES" style="text;html=1;align=center;verticalAlign=middle;whiteSpace=wrap;rounded=0;" vertex="1" parent="1">
          <mxGeometry x="284" y="745" width="60" height="30" as="geometry" />
        </mxCell>
        <mxCell id="Gm09_iqh8yHXQMh3_-yw-97" value="NO" style="text;html=1;align=center;verticalAlign=middle;whiteSpace=wrap;rounded=0;" vertex="1" parent="1">
          <mxGeometry x="-111" y="341" width="60" height="30" as="geometry" />
        </mxCell>
        <mxCell id="Gm09_iqh8yHXQMh3_-yw-99" value="" style="endArrow=classic;html=1;rounded=0;fontSize=12;startSize=8;endSize=8;curved=1;exitX=1;exitY=0.5;exitDx=0;exitDy=0;entryX=0.5;entryY=1;entryDx=0;entryDy=0;" edge="1" parent="1" source="Gm09_iqh8yHXQMh3_-yw-22" target="Gm09_iqh8yHXQMh3_-yw-97">
          <mxGeometry width="50" height="50" relative="1" as="geometry">
            <mxPoint y="570" as="sourcePoint" />
            <mxPoint x="168" y="765" as="targetPoint" />
          </mxGeometry>
        </mxCell>
        <mxCell id="Gm09_iqh8yHXQMh3_-yw-101" value="" style="endArrow=classic;html=1;rounded=0;fontSize=12;startSize=8;endSize=8;curved=1;entryX=0.5;entryY=0;entryDx=0;entryDy=0;exitX=0.5;exitY=1;exitDx=0;exitDy=0;" edge="1" parent="1" source="Gm09_iqh8yHXQMh3_-yw-22" target="Gm09_iqh8yHXQMh3_-yw-100">
          <mxGeometry width="50" height="50" relative="1" as="geometry">
            <mxPoint x="-140" y="461" as="sourcePoint" />
            <mxPoint x="-141" y="541" as="targetPoint" />
          </mxGeometry>
        </mxCell>
        <mxCell id="Gm09_iqh8yHXQMh3_-yw-100" value="YES" style="text;html=1;align=center;verticalAlign=middle;whiteSpace=wrap;rounded=0;" vertex="1" parent="1">
          <mxGeometry x="-171" y="497" width="60" height="30" as="geometry" />
        </mxCell>
        <mxCell id="Gm09_iqh8yHXQMh3_-yw-104" value="" style="endArrow=classic;html=1;rounded=0;fontSize=12;startSize=8;endSize=8;curved=1;exitX=0;exitY=0.5;exitDx=0;exitDy=0;entryX=0.5;entryY=1;entryDx=0;entryDy=0;" edge="1" parent="1" source="Gm09_iqh8yHXQMh3_-yw-36" target="Gm09_iqh8yHXQMh3_-yw-103">
          <mxGeometry width="50" height="50" relative="1" as="geometry">
            <mxPoint x="68" y="975" as="sourcePoint" />
            <mxPoint x="62" y="286" as="targetPoint" />
            <Array as="points" />
          </mxGeometry>
        </mxCell>
        <mxCell id="Gm09_iqh8yHXQMh3_-yw-103" value="INVALID" style="text;html=1;align=center;verticalAlign=middle;whiteSpace=wrap;rounded=0;" vertex="1" parent="1">
          <mxGeometry x="101" y="629" width="60" height="30" as="geometry" />
        </mxCell>
        <mxCell id="Gm09_iqh8yHXQMh3_-yw-107" value="" style="endArrow=classic;html=1;rounded=0;fontSize=12;startSize=8;endSize=8;curved=1;entryX=0.5;entryY=0;entryDx=0;entryDy=0;exitX=0.5;exitY=1;exitDx=0;exitDy=0;" edge="1" parent="1" source="Gm09_iqh8yHXQMh3_-yw-36" target="Gm09_iqh8yHXQMh3_-yw-105">
          <mxGeometry width="50" height="50" relative="1" as="geometry">
            <mxPoint x="115" y="1019" as="sourcePoint" />
            <mxPoint x="115" y="1100" as="targetPoint" />
          </mxGeometry>
        </mxCell>
        <mxCell id="Gm09_iqh8yHXQMh3_-yw-105" value="VALID" style="text;html=1;align=center;verticalAlign=middle;whiteSpace=wrap;rounded=0;" vertex="1" parent="1">
          <mxGeometry x="86" y="1045" width="60" height="30" as="geometry" />
        </mxCell>
        <mxCell id="Gm09_iqh8yHXQMh3_-yw-109" value="" style="endArrow=classic;html=1;rounded=0;fontSize=12;startSize=8;endSize=8;curved=1;entryX=0.5;entryY=0;entryDx=0;entryDy=0;exitX=1;exitY=0.5;exitDx=0;exitDy=0;" edge="1" parent="1" source="Gm09_iqh8yHXQMh3_-yw-40" target="Gm09_iqh8yHXQMh3_-yw-108">
          <mxGeometry width="50" height="50" relative="1" as="geometry">
            <mxPoint x="377" y="842" as="sourcePoint" />
            <mxPoint x="377" y="955" as="targetPoint" />
          </mxGeometry>
        </mxCell>
        <mxCell id="Gm09_iqh8yHXQMh3_-yw-108" value="--sudo-only" style="text;html=1;align=center;verticalAlign=middle;whiteSpace=wrap;rounded=0;" vertex="1" parent="1">
          <mxGeometry x="327" y="899" width="100" height="30" as="geometry" />
        </mxCell>
        <mxCell id="Gm09_iqh8yHXQMh3_-yw-111" value="" style="endArrow=classic;html=1;rounded=0;fontSize=12;startSize=8;endSize=8;curved=1;entryX=0.5;entryY=0;entryDx=0;entryDy=0;exitX=0;exitY=0.5;exitDx=0;exitDy=0;" edge="1" parent="1" source="Gm09_iqh8yHXQMh3_-yw-40" target="Gm09_iqh8yHXQMh3_-yw-110">
          <mxGeometry width="50" height="50" relative="1" as="geometry">
            <mxPoint x="284" y="842" as="sourcePoint" />
            <mxPoint x="240" y="957" as="targetPoint" />
          </mxGeometry>
        </mxCell>
        <mxCell id="Gm09_iqh8yHXQMh3_-yw-110" value="no options" style="text;html=1;align=center;verticalAlign=middle;whiteSpace=wrap;rounded=0;" vertex="1" parent="1">
          <mxGeometry x="219" y="886" width="88" height="30" as="geometry" />
        </mxCell>
      </root>
    </mxGraphModel>
  </diagram>
</mxfile>
